<svg xmlns="http://www.w3.org/2000/svg" width="246" height="33" fill="none" viewBox="0 0 246 33">
  <path fill="#fff" d="M21.005 25.025H7.325L4.805 32H.485L11.825.815h4.725L27.845 32h-4.32l-2.52-6.975Zm-1.17-3.33-5.67-15.84-5.67 15.84h11.34ZM57.447 32h-4.095L36.882 7.025V32h-4.095V.59h4.095l16.47 24.93V.59h4.095V32Zm30.74-22.275c-.87-1.83-2.13-3.24-3.78-4.23-1.65-1.02-3.57-1.53-5.76-1.53s-4.17.51-5.94 1.53c-1.74.99-3.12 2.43-4.14 4.32-.99 1.86-1.484 4.02-1.484 6.48 0 2.46.495 4.62 1.485 6.48 1.02 1.86 2.4 3.3 4.14 4.32 1.77.99 3.75 1.485 5.94 1.485 3.06 0 5.58-.915 7.56-2.745 1.98-1.83 3.135-4.305 3.465-7.425h-12.51v-3.33h16.875v3.15c-.24 2.58-1.05 4.95-2.43 7.11-1.38 2.13-3.195 3.825-5.445 5.085-2.25 1.23-4.755 1.845-7.515 1.845-2.91 0-5.565-.675-7.965-2.025-2.4-1.38-4.305-3.285-5.715-5.715-1.38-2.43-2.07-5.175-2.07-8.235 0-3.06.69-5.805 2.07-8.235 1.41-2.46 3.315-4.365 5.715-5.715 2.4-1.38 5.055-2.07 7.965-2.07 3.33 0 6.27.825 8.82 2.475 2.58 1.65 4.455 3.975 5.625 6.975h-4.905Zm15.27-9.09V20.48c0 2.79.675 4.86 2.025 6.21 1.38 1.35 3.285 2.025 5.715 2.025 2.4 0 4.275-.675 5.625-2.025 1.38-1.35 2.07-3.42 2.07-6.21V.635h4.095v19.8c0 2.61-.525 4.815-1.575 6.615-1.05 1.77-2.475 3.09-4.275 3.96-1.77.87-3.765 1.305-5.985 1.305s-4.23-.435-6.03-1.305c-1.77-.87-3.18-2.19-4.23-3.96-1.02-1.8-1.53-4.005-1.53-6.615V.635h4.095Zm36.307 31.68c-2.07 0-3.93-.36-5.58-1.08-1.62-.75-2.895-1.77-3.825-3.06-.93-1.32-1.41-2.835-1.44-4.545h4.365c.15 1.47.75 2.715 1.8 3.735 1.08.99 2.64 1.485 4.68 1.485 1.95 0 3.48-.48 4.59-1.44 1.14-.99 1.71-2.25 1.71-3.78 0-1.2-.33-2.175-.99-2.925-.66-.75-1.485-1.32-2.475-1.71-.99-.39-2.325-.81-4.005-1.26-2.07-.54-3.735-1.08-4.995-1.62-1.23-.54-2.295-1.38-3.195-2.52-.87-1.17-1.305-2.73-1.305-4.68 0-1.71.435-3.225 1.305-4.545.87-1.32 2.085-2.34 3.645-3.06 1.59-.72 3.405-1.08 5.445-1.08 2.94 0 5.34.735 7.2 2.205 1.89 1.47 2.955 3.42 3.195 5.85h-4.5c-.15-1.2-.78-2.25-1.89-3.15-1.11-.93-2.58-1.395-4.41-1.395-1.71 0-3.105.45-4.185 1.35-1.08.87-1.62 2.1-1.62 3.69 0 1.14.315 2.07.945 2.79a6.713 6.713 0 0 0 2.385 1.665c.96.36 2.295.78 4.005 1.26 2.07.57 3.735 1.14 4.995 1.71 1.26.54 2.34 1.395 3.24 2.565.9 1.14 1.35 2.7 1.35 4.68 0 1.53-.405 2.97-1.215 4.32s-2.01 2.445-3.6 3.285c-1.59.84-3.465 1.26-5.625 1.26Z"/>
  <path fill="#5CE1E6" d="M185.957.635v3.33h-13.635V14.54h11.07v3.33h-11.07V32h-4.095V.635h17.73Zm23.486 24.39h-13.68L193.243 32h-4.321L200.263.815h4.725L216.283 32h-4.32l-2.52-6.975Zm-1.17-3.33-5.67-15.84-5.67 15.84h11.34ZM245.885 32h-4.095L225.32 7.025V32h-4.095V.59h4.095l16.47 24.93V.59h4.095V32Z"/>
  <path fill="#000" fill-opacity=".5" d="m21.005 25.025.94-.34-.238-.66h-.702v1Zm-13.68 0v-1h-.702l-.239.66.941.34ZM4.805 32v1h.702l.239-.66-.941-.34Zm-4.32 0-.94-.342L-.943 33H.485v-1ZM11.825.815v-1h-.7l-.24.658.94.342Zm4.725 0 .94-.34-.239-.66h-.701v1ZM27.845 32v1h1.426l-.486-1.34-.94.34Zm-4.32 0-.94.34.238.66h.702v-1Zm-3.69-10.305v1h1.42l-.479-1.337-.941.337Zm-5.67-15.84.942-.337-.942-2.63-.941 2.63.941.337Zm-5.67 15.84-.941-.337-.48 1.337h1.421v-1Zm12.51 2.33H7.325v2h13.68v-2Zm-14.62.66-2.52 6.975 1.88.68 2.52-6.975-1.88-.68ZM4.804 31H.485v2h4.32v-2Zm-3.38 1.342 11.34-31.185-1.88-.684-11.34 31.185 1.88.684Zm10.4-30.527h4.725v-2h-4.725v2Zm3.785-.66 11.295 31.186 1.88-.681L17.49.474l-1.88.682ZM27.845 31h-4.32v2h4.32v-2Zm-3.38.66-2.52-6.975-1.88.68 2.52 6.975 1.88-.68Zm-3.689-10.302-5.67-15.84-1.883.674 5.67 15.84 1.883-.674Zm-7.553-15.84-5.67 15.84 1.884.674 5.67-15.84-1.883-.674ZM8.495 22.695h11.34v-2H8.495v2ZM57.447 32v1h1v-1h-1Zm-4.095 0-.834.55.296.45h.538v-1ZM36.882 7.025l.835-.55-1.835-2.783v3.333h1Zm0 24.975v1h1v-1h-1Zm-4.095 0h-1v1h1v-1Zm0-31.41v-1h-1v1h1Zm4.095 0 .835-.551-.297-.449h-.538v1Zm16.47 24.93-.834.551 1.834 2.777V25.52h-1Zm0-24.93v-1h-1v1h1Zm4.095 0h1v-1h-1v1Zm0 30.41h-4.095v2h4.095v-2Zm-3.26.45L37.717 6.474l-1.67 1.102 16.47 24.974 1.67-1.1ZM35.882 7.024V32h2V7.025h-2Zm1 23.975h-4.095v2h4.095v-2Zm-3.095 1V.59h-2V32h2Zm-1-30.41h4.095v-2h-4.095v2Zm3.26-.449 16.47 24.93 1.67-1.102L37.717.039l-1.67 1.102Zm18.306 24.38V.59h-2v24.93h2Zm-1-23.93h4.095v-2h-4.095v2Zm3.095-1V32h2V.59h-2Zm31.74 9.135-.902.43.271.57h.632v-1Zm-3.78-4.23-.525.85.011.007.515-.857Zm-11.7 0 .495.87.005-.004-.5-.866Zm-4.14 4.32-.88-.475-.002.005.883.47Zm0 12.96-.882.47.006.01.877-.48Zm4.14 4.32-.505.863.009.005.009.005.488-.873Zm13.5-1.26.68.734-.68-.734Zm3.466-7.425.994.105.117-1.105h-1.111v1Zm-12.51 0h-1v1h1v-1Zm0-3.33v-1h-1v1h1Zm16.875 0h1v-1h-1v1Zm0 3.15.996.093.004-.047v-.046h-1Zm-2.43 7.11.84.544.003-.006-.843-.538Zm-5.445 5.085.48.877.008-.005-.488-.872Zm-15.48-.18-.499.867.009.005.49-.872Zm-5.715-5.715-.87.494.005.008.865-.502Zm0-16.47-.868-.497-.002.003.87.494Zm5.715-5.715.49.872.008-.005-.498-.867Zm16.785.405-.543.84.004.002.539-.842Zm5.625 6.975v1h1.463l-.531-1.363-.932.363Zm-4.002-.43c-.95-1.997-2.34-3.56-4.169-4.657l-1.029 1.714c1.472.884 2.602 2.14 3.392 3.802l1.806-.858Zm-4.157-4.65c-1.828-1.13-3.935-1.68-6.286-1.68v2c2.029 0 3.762.47 5.234 1.38l1.052-1.7Zm-6.286-1.68c-2.352 0-4.507.55-6.44 1.664l1 1.732c1.606-.926 3.412-1.396 5.44-1.396v-2Zm-6.435 1.66C70.3 5.716 68.79 7.299 67.688 9.34l1.76.95c.938-1.738 2.19-3.035 3.754-3.926l-.989-1.738Zm-4.528 4.72c-1.079 2.027-1.602 4.354-1.602 6.95h2c0-2.324.467-4.317 1.368-6.01l-1.766-.94Zm-1.602 6.95c0 2.596.523 4.923 1.602 6.95l1.766-.94c-.901-1.693-1.368-3.686-1.368-6.01h-2Zm1.608 6.96c1.102 2.01 2.607 3.587 4.511 4.703l1.012-1.726c-1.576-.924-2.832-2.228-3.77-3.938l-1.753.962Zm4.529 4.713c1.93 1.08 4.081 1.612 6.428 1.612v-2c-2.033 0-3.843-.458-5.452-1.358l-.976 1.746Zm6.428 1.612c3.275 0 6.049-.987 8.239-3.01L85.53 25.1c-1.77 1.637-4.036 2.48-6.881 2.48v2Zm8.239-3.01c2.186-2.022 3.43-4.736 3.78-8.055l-1.989-.21c-.308 2.92-1.376 5.157-3.149 6.796l1.358 1.468Zm2.786-9.16h-12.51v2h12.51v-2Zm-11.51 1v-3.33h-2v3.33h2Zm-1-2.33h16.875v-2H77.163v2Zm15.875-1v3.15h2v-3.15h-2Zm.004 3.057a14.723 14.723 0 0 1-2.277 6.665l1.686 1.076a16.723 16.723 0 0 0 2.583-7.555l-1.992-.186Zm-2.273 6.66c-1.29 1.99-2.984 3.574-5.095 4.755l.977 1.745c2.39-1.338 4.326-3.145 5.796-5.413l-1.678-1.088Zm-5.086 4.75c-2.092 1.144-4.43 1.723-7.035 1.723v2c2.914 0 5.586-.651 7.995-1.968l-.96-1.754Zm-7.035 1.723c-2.748 0-5.233-.636-7.475-1.897l-.98 1.744c2.558 1.439 5.383 2.153 8.455 2.153v-2Zm-7.467-1.892c-2.245-1.291-4.025-3.07-5.348-5.35l-1.73 1.004c1.497 2.58 3.527 4.611 6.081 6.08l.997-1.734Zm-5.343-5.342c-1.287-2.265-1.94-4.837-1.94-7.741h-2c0 3.216.727 6.134 2.2 8.729l1.74-.988Zm-1.94-7.741c0-2.904.653-5.476 1.94-7.741l-1.74-.988c-1.473 2.595-2.2 5.513-2.2 8.729h2Zm1.937-7.738c1.324-2.308 3.1-4.082 5.338-5.34l-.98-1.744c-2.562 1.442-4.596 3.478-6.093 6.09l1.736.994Zm5.346-5.345c2.24-1.288 4.722-1.937 7.467-1.937v-2c-3.076 0-5.904.731-8.464 2.203l.997 1.734Zm7.467-1.937c3.156 0 5.904.78 8.277 2.315l1.086-1.68C85.284.146 82.151-.725 78.648-.725v2Zm8.281 2.317c2.392 1.53 4.135 3.683 5.232 6.496l1.864-.726c-1.243-3.187-3.25-5.684-6.018-7.454L86.93 3.592Zm6.164 5.133h-4.905v2h4.905v-2Zm10.364-8.09h1v-1h-1v1Zm2.025 26.055-.707.707.008.008.699-.715Zm11.34 0-.699-.715-.008.008.707.707Zm2.07-26.055v-1h-1v1h1Zm4.095 0h1v-1h-1v1Zm-1.575 26.415.86.51.004-.006-.864-.504Zm-4.275 3.96-.435-.9-.006.003.441.897Zm-12.015 0-.441.897.006.003.435-.9Zm-4.23-3.96-.87.493.005.009.005.008.86-.51ZM99.362.635v-1h-1v1h1Zm3.095 0V20.48h2V.635h-2Zm0 19.845c0 2.933.709 5.308 2.318 6.917l1.414-1.414c-1.09-1.091-1.732-2.856-1.732-5.503h-2Zm2.326 6.925c1.612 1.577 3.794 2.31 6.414 2.31v-2c-2.239 0-3.868-.617-5.015-1.74l-1.399 1.43Zm6.414 2.31c2.594 0 4.75-.735 6.332-2.318l-1.414-1.414c-1.117 1.117-2.711 1.732-4.918 1.732v2Zm6.325-2.31c1.644-1.608 2.37-3.986 2.37-6.925h-2c0 2.642-.653 4.404-1.769 5.495l1.399 1.43Zm2.37-6.925V.635h-2V20.48h2Zm-1-18.845h4.095v-2h-4.095v2Zm3.095-1v19.8h2V.635h-2Zm0 19.8c0 2.477-.498 4.498-1.438 6.111l1.727 1.008c1.159-1.987 1.711-4.376 1.711-7.119h-2Zm-1.435 6.105c-.953 1.606-2.232 2.788-3.85 3.57l.87 1.8c1.983-.958 3.553-2.416 4.7-4.35l-1.72-1.02Zm-3.856 3.573c-1.616.794-3.457 1.202-5.544 1.202v2c2.354 0 4.503-.462 6.426-1.408l-.882-1.794Zm-5.544 1.202c-2.086 0-3.945-.408-5.595-1.205l-.87 1.8c1.95.943 4.111 1.405 6.465 1.405v-2Zm-5.589-1.202c-1.587-.78-2.855-1.963-3.811-3.573l-1.72 1.02c1.145 1.93 2.697 3.388 4.649 4.347l.882-1.794Zm-3.801-3.556c-.915-1.615-1.4-3.64-1.4-6.122h-2c0 2.738.536 5.123 1.66 7.108l1.74-.986Zm-1.4-6.122V.635h-2v19.8h2Zm-1-18.8h4.095v-2h-4.095v2Zm34.822 29.6-.421.907.01.005.011.005.4-.917Zm-3.825-3.06-.818.576.006.009.812-.585Zm-1.44-4.545v-1h-1.018l.018 1.018 1-.018Zm4.365 0 .994-.101-.091-.899h-.903v1Zm1.8 3.735-.697.717.01.01.011.01.676-.737Zm9.27.045.654.756.001-.001-.655-.755Zm.72-6.705-.751.66.751-.66Zm-2.475-1.71-.367.93.367-.93Zm-4.005-1.26.258-.966-.006-.002-.252.968Zm-4.995-1.62-.402.916.008.003.394-.919Zm-3.195-2.52-.803.597.009.011.009.012.785-.62Zm0-9.225.834.55-.834-.55Zm3.645-3.06-.413-.911-.007.003.42.908Zm12.645 1.125-.621.785.007.004.614-.789Zm3.195 5.85v1h1.103l-.108-1.098-.995.098Zm-4.5 0-.993.124.11.876h.883v-1Zm-1.89-3.15-.643.767.006.005.007.005.63-.777Zm-8.595-.045.627.779.006-.005.007-.006-.64-.768Zm-.675 6.48-.753.659.008.008.007.009.738-.676Zm2.385 1.665-.387.922.017.008.018.006.352-.936Zm4.005 1.26-.271.963.005.001.266-.964Zm4.995 1.71-.413.911.009.004.01.004.394-.919Zm3.24 2.565-.793.61.008.01.785-.62Zm.135 9 .857.515-.857-.515Zm-3.6 3.285-.468-.884.468.884Zm-5.625.26c-1.953 0-3.674-.34-5.181-.997l-.799 1.833c1.793.783 3.792 1.164 5.98 1.164v-2Zm-5.16-.988c-1.484-.686-2.617-1.603-3.434-2.737l-1.623 1.17c1.043 1.446 2.46 2.57 4.216 3.382l.841-1.815Zm-3.428-2.728c-.808-1.146-1.231-2.464-1.258-3.986l-1.999.035c.033 1.897.57 3.61 1.622 5.103l1.635-1.152Zm-2.257-2.969h4.365v-2h-4.365v2Zm3.37-.898c.173 1.701.877 3.165 2.098 4.35l1.393-1.434c-.879-.855-1.375-1.881-1.502-3.12l-1.989.204Zm2.119 4.37c1.326 1.216 3.164 1.748 5.356 1.748v-2c-1.889 0-3.171-.458-4.005-1.222l-1.351 1.474Zm5.356 1.748c2.11 0 3.899-.521 5.244-1.684l-1.309-1.512c-.875.757-2.146 1.196-3.935 1.196v2Zm5.245-1.685c1.362-1.183 2.055-2.72 2.055-4.535h-2c0 1.245-.448 2.228-1.366 3.025l1.311 1.51Zm2.055-4.535c0-1.392-.388-2.618-1.24-3.586l-1.501 1.322c.468.532.741 1.256.741 2.264h2Zm-1.24-3.586c-.771-.877-1.731-1.535-2.859-1.98l-.733 1.861c.852.336 1.542.817 2.091 1.44l1.501-1.32Zm-2.859-1.98c-1.04-.41-2.416-.84-4.113-1.295l-.517 1.932c1.663.445 2.957.854 3.897 1.224l.733-1.86Zm-4.119-1.297c-2.045-.533-3.657-1.058-4.854-1.571l-.787 1.838c1.323.568 3.041 1.122 5.136 1.669l.505-1.936Zm-4.845-1.568c-1.069-.469-2.006-1.201-2.813-2.224l-1.569 1.24c.993 1.258 2.186 2.204 3.578 2.816l.804-1.832Zm-2.795-2.2c-.705-.948-1.107-2.277-1.107-4.084h-2c0 2.093.467 3.884 1.502 5.277l1.605-1.194Zm-1.107-4.084c0-1.531.386-2.851 1.139-3.995l-1.669-1.1c-.987 1.496-1.47 3.206-1.47 5.095h2Zm1.139-3.995c.759-1.15 1.824-2.053 3.23-2.702l-.839-1.816c-1.714.791-3.079 1.929-4.06 3.418l1.669 1.1Zm3.223-2.699c1.44-.652 3.111-.991 5.033-.991v-2c-2.159 0-4.118.381-5.858 1.169l.825 1.822Zm5.033-.991c2.77 0 4.935.69 6.579 1.99l1.241-1.57c-2.076-1.64-4.711-2.42-7.82-2.42v2Zm6.586 1.994c1.668 1.298 2.6 2.996 2.813 5.16l1.991-.197c-.267-2.697-1.465-4.9-3.577-6.541l-1.227 1.578Zm3.809 4.061h-4.5v2h4.5v-2Zm-3.508.876c-.188-1.502-.981-2.772-2.253-3.803l-1.259 1.554c.948.769 1.415 1.599 1.527 2.497l1.985-.248Zm-2.24-3.793c-1.334-1.117-3.051-1.628-5.052-1.628v2c1.658 0 2.881.419 3.767 1.162l1.285-1.534Zm-5.052-1.628c-1.892 0-3.529.502-4.826 1.582l1.281 1.536c.863-.72 2.016-1.118 3.545-1.118v-2Zm-4.813 1.571c-1.352 1.09-1.992 2.626-1.992 4.469h2c0-1.337.439-2.26 1.247-2.911l-1.255-1.558Zm-1.992 4.469c0 1.333.373 2.513 1.192 3.449l1.505-1.317c-.441-.505-.697-1.185-.697-2.132h-2Zm1.207 3.466a7.714 7.714 0 0 0 2.736 1.911l.773-1.844a5.711 5.711 0 0 1-2.034-1.419l-1.475 1.352Zm2.771 1.925c.999.375 2.366.804 4.086 1.287l.541-1.926c-1.7-.477-3.003-.888-3.924-1.233l-.703 1.872Zm4.091 1.288c2.044.563 3.654 1.117 4.848 1.657l.825-1.822c-1.326-.6-3.046-1.186-5.142-1.763l-.531 1.928Zm4.867 1.665c1.09.468 2.037 1.21 2.841 2.256l1.585-1.22c-.996-1.294-2.209-2.262-3.639-2.874l-.787 1.838Zm2.849 2.266c.717.909 1.135 2.224 1.135 4.06h2c0-2.124-.483-3.929-1.566-5.3l-1.569 1.24Zm1.135 4.06c0 1.343-.353 2.606-1.073 3.806l1.715 1.029c.9-1.501 1.358-3.118 1.358-4.835h-2Zm-1.073 3.806c-.703 1.172-1.758 2.148-3.21 2.915l.935 1.768c1.728-.913 3.073-2.127 3.99-3.654l-1.715-1.03Zm-3.21 2.915c-1.419.75-3.128 1.144-5.157 1.144v2c2.29 0 4.331-.446 6.092-1.376l-.935-1.768ZM185.957.635h1v-1h-1v1Zm0 3.33v1h1v-1h-1Zm-13.635 0v-1h-1v1h1Zm0 10.575h-1v1h1v-1Zm11.07 0h1v-1h-1v1Zm0 3.33v1h1v-1h-1Zm-11.07 0v-1h-1v1h1Zm0 14.13v1h1v-1h-1Zm-4.095 0h-1v1h1v-1Zm0-31.365v-1h-1v1h1Zm16.73 0v3.33h2V.635h-2Zm1 2.33h-13.635v2h13.635v-2Zm-14.635 1V14.54h2V3.965h-2Zm1 11.575h11.07v-2h-11.07v2Zm10.07-1v3.33h2v-3.33h-2Zm1 2.33h-11.07v2h11.07v-2Zm-12.07 1V32h2V17.87h-2Zm1 13.13h-4.095v2h4.095v-2Zm-3.095 1V.635h-2V32h2Zm-1-30.365h17.73v-2h-17.73v2Zm41.216 23.39.94-.34-.239-.66h-.701v1Zm-13.68 0v-1h-.702l-.239.66.941.34ZM193.243 32v1h.701l.239-.66-.94-.34Zm-4.321 0-.939-.342-.488 1.342h1.427v-1ZM200.263.815v-1h-.701l-.239.658.94.342Zm4.725 0 .94-.34-.239-.66h-.701v1ZM216.283 32v1h1.425l-.485-1.34-.94.34Zm-4.32 0-.941.34.239.66h.702v-1Zm-3.69-10.305v1h1.42l-.479-1.337-.941.337Zm-5.67-15.84.941-.337-.941-2.63-.942 2.63.942.337Zm-5.67 15.84-.942-.337-.479 1.337h1.421v-1Zm12.51 2.33h-13.68v2h13.68v-2Zm-14.621.66-2.52 6.975 1.881.68 2.52-6.975-1.881-.68ZM193.243 31h-4.321v2h4.321v-2Zm-3.381 1.342 11.34-31.185-1.879-.684-11.34 31.185 1.879.684Zm10.401-30.527h4.725v-2h-4.725v2Zm3.784-.66 11.295 31.186 1.881-.681L205.928.474l-1.881.682ZM216.283 31h-4.32v2h4.32v-2Zm-3.38.66-2.52-6.975-1.881.68 2.52 6.975 1.881-.68Zm-3.689-10.302-5.67-15.84-1.883.674 5.67 15.84 1.883-.674Zm-7.553-15.84-5.67 15.84 1.883.674 5.67-15.84-1.883-.674Zm-4.728 17.177h11.34v-2h-11.34v2ZM245.885 32v1h1v-1h-1Zm-4.095 0-.835.55.296.45h.539v-1ZM225.32 7.025l.835-.55-1.835-2.783v3.333h1Zm0 24.975v1h1v-1h-1Zm-4.095 0h-1v1h1v-1Zm0-31.41v-1h-1v1h1Zm4.095 0 .834-.551-.296-.449h-.538v1Zm16.47 24.93-.835.551 1.835 2.777V25.52h-1Zm0-24.93v-1h-1v1h1Zm4.095 0h1v-1h-1v1Zm0 30.41h-4.095v2h4.095v-2Zm-3.26.45-16.47-24.976-1.67 1.102 16.47 24.974 1.67-1.1ZM224.32 7.024V32h2V7.025h-2Zm1 23.975h-4.095v2h4.095v-2Zm-3.095 1V.59h-2V32h2Zm-1-30.41h4.095v-2h-4.095v2Zm3.26-.449 16.47 24.93 1.669-1.102-16.47-24.93-1.669 1.102Zm18.305 24.38V.59h-2v24.93h2Zm-1-23.93h4.095v-2h-4.095v2Zm3.095-1V32h2V.59h-2Z"/>
</svg>
