<svg xmlns="http://www.w3.org/2000/svg" width="239" height="32" fill="none" viewBox="0 0 239 32">
  <path fill="#000" d="M.989 31 11.997.9h6.192L29.197 31h-5.848l-2.408-6.966H9.202L6.751 31H.989Zm9.718-11.266h8.729L15.05 7.221l-4.343 12.513ZM33.074 31V.9h5.504l14.147 21.199V.9h5.504V31h-5.504L38.578 9.844V31h-5.504Zm44.149.516c-2.838 0-5.318-.645-7.44-1.935-2.12-1.29-3.769-3.082-4.944-5.375-1.176-2.322-1.763-5.017-1.763-8.084 0-3.096.602-5.82 1.806-8.17 1.232-2.38 2.967-4.228 5.203-5.547C72.349 1.058 75.03.384 78.125.384c3.527 0 6.45.846 8.773 2.537 2.322 1.691 3.827 4.028 4.515 7.009h-6.15c-.458-1.405-1.29-2.494-2.493-3.268-1.204-.803-2.752-1.204-4.644-1.204-3.01 0-5.332.96-6.966 2.881-1.634 1.892-2.451 4.5-2.451 7.826 0 3.325.802 5.905 2.408 7.74 1.634 1.806 3.841 2.709 6.622 2.709 2.723 0 4.773-.731 6.149-2.193 1.404-1.49 2.25-3.44 2.537-5.848h-7.611v-4.128h13.158V31h-5.074l-.43-3.956c-.975 1.433-2.193 2.537-3.655 3.311-1.462.774-3.326 1.161-5.59 1.161Zm31.709 0c-2.207 0-4.199-.43-5.977-1.29-1.777-.889-3.196-2.222-4.257-3.999-1.032-1.777-1.548-4.028-1.548-6.751V.9h5.504v18.619c0 2.35.559 4.1 1.677 5.246 1.147 1.147 2.724 1.72 4.73 1.72 1.978 0 3.541-.573 4.687-1.72 1.147-1.147 1.72-2.895 1.72-5.246V.9h5.504v18.576c0 2.723-.544 4.974-1.634 6.751-1.089 1.777-2.551 3.11-4.386 3.999-1.806.86-3.812 1.29-6.02 1.29Zm27.936 0c-2.207 0-4.157-.373-5.848-1.118-1.691-.774-3.024-1.863-3.999-3.268-.975-1.433-1.476-3.168-1.505-5.203h5.805c.057 1.405.559 2.594 1.505 3.569.975.946 2.308 1.419 3.999 1.419 1.462 0 2.623-.344 3.483-1.032.86-.717 1.29-1.663 1.29-2.838 0-1.233-.387-2.193-1.161-2.881-.745-.688-1.749-1.247-3.01-1.677l-4.042-1.376c-2.322-.803-4.099-1.835-5.332-3.096-1.204-1.261-1.806-2.938-1.806-5.031-.029-1.777.387-3.297 1.247-4.558.889-1.29 2.093-2.279 3.612-2.967 1.519-.717 3.268-1.075 5.246-1.075 2.007 0 3.77.358 5.289 1.075 1.548.717 2.752 1.72 3.612 3.01.889 1.29 1.362 2.824 1.419 4.601h-5.891c-.029-1.06-.444-1.992-1.247-2.795-.774-.831-1.863-1.247-3.268-1.247-1.204-.029-2.222.272-3.053.903-.803.602-1.204 1.49-1.204 2.666 0 1.003.315 1.806.946 2.408.631.573 1.491 1.06 2.58 1.462 1.089.401 2.336.831 3.741 1.29a25.445 25.445 0 0 1 4.085 1.806 8.295 8.295 0 0 1 2.967 2.752c.745 1.118 1.118 2.566 1.118 4.343a8.414 8.414 0 0 1-1.204 4.386c-.803 1.347-1.992 2.437-3.569 3.268-1.577.803-3.512 1.204-5.805 1.204Z"/>
  <path fill="#00A0C8" d="M162.494 31V.9h19.436v4.429h-13.932v8.428h11.266V18.1h-11.266V31h-5.504Zm18.474 0L191.976.9h6.192L209.176 31h-5.848l-2.408-6.966h-11.739L186.73 31h-5.762Zm9.718-11.266h8.729l-4.386-12.513-4.343 12.513ZM213.053 31V.9h5.504l14.147 21.199V.9h5.504V31h-5.504L218.557 9.844V31h-5.504Z"/>
</svg>
